<?xml version="1.0" encoding="UTF-8"?>
<svg width="201px" height="221px" viewBox="0 0 201 221" version="1.1" xmlns="http://www.w3.org/2000/svg" xmlns:xlink="http://www.w3.org/1999/xlink">
    <!-- Generator: Sketch 3.8.3 (29802) - http://www.bohemiancoding.com/sketch -->
    <title>Shape</title>
    <desc>Created with Sketch.</desc>
    <defs></defs>
    <g id="Page-1" stroke="none" stroke-width="1" fill="none" fill-rule="evenodd">
        <g id="data" fill="#2F6592">
            <g id="Page-1">
                <path d="M100.451,90.681052 C44.3793344,90.681052 0.451,70.9161454 0.451,45.681526 C0.451,20.4469066 44.3793344,0.682 100.451,0.682 C156.522666,0.682 200.451,20.4469066 200.451,45.681526 C200.451,70.9161454 156.522666,90.681052 100.451,90.681052 L100.451,90.681052 L100.451,90.681052 Z M100.451,10.682948 C57.8782443,10.682948 10.451948,25.0539784 10.451948,45.681526 C10.451948,66.3090737 57.8782443,80.6801041 100.451,80.6801041 C143.023756,80.6801041 190.450052,66.3090737 190.450052,45.681526 C190.450052,25.0539784 143.014276,10.682948 100.451,10.682948 L100.451,10.682948 L100.451,10.682948 Z M100.451,130.684844 C44.3793344,130.684844 0.451,110.919937 0.451,85.6853179 L0.451,45.681526 C0.451,42.9134911 2.68817888,40.6857918 5.44673419,40.6857918 C8.20528951,40.6857918 10.4424684,42.9229707 10.4424684,45.681526 L10.4424684,85.6853179 C10.4424684,106.312865 57.8687647,120.683896 100.44152,120.683896 C143.014276,120.683896 190.440572,106.312865 190.440572,85.6853179 L190.440572,45.681526 C190.440572,42.9134911 192.677751,40.6857918 195.436307,40.6857918 C198.194862,40.6857918 200.432041,42.9229707 200.432041,45.681526 L200.432041,85.6853179 C200.432041,110.919937 156.503706,130.684844 100.432041,130.684844 L100.451,130.684844 L100.451,130.684844 Z M100.451,175.68437 C44.3793344,175.68437 0.451,155.919463 0.451,130.684844 L0.451,85.6853179 C0.451,82.9267625 2.68817888,80.6895837 5.44673419,80.6895837 C8.20528951,80.6895837 10.4424684,82.9267625 10.4424684,85.6853179 L10.4424684,130.684844 C10.4424684,151.312392 57.8687647,165.683422 100.44152,165.683422 C143.014276,165.683422 190.440572,151.302912 190.440572,130.684844 L190.440572,85.6853179 C190.440572,82.9267625 192.677751,80.6895837 195.436307,80.6895837 C198.194862,80.6895837 200.432041,82.9267625 200.432041,85.6853179 L200.432041,130.684844 C200.432041,155.919463 156.503706,175.68437 100.432041,175.68437 L100.451,175.68437 L100.451,175.68437 Z M100.451,220.683896 C44.3793344,220.683896 0.451,200.918989 0.451,175.68437 L0.451,130.684844 C0.451,127.926289 2.68817888,125.68911 5.44673419,125.68911 C8.20528951,125.68911 10.4424684,127.926289 10.4424684,130.684844 L10.4424684,175.68437 C10.4424684,196.311918 57.8687647,210.682948 100.44152,210.682948 C143.014276,210.682948 190.440572,196.302438 190.440572,175.68437 L190.440572,130.684844 C190.440572,127.926289 192.677751,125.68911 195.436307,125.68911 C198.194862,125.68911 200.432041,127.926289 200.432041,130.684844 L200.432041,175.68437 C200.432041,200.918989 156.503706,220.683896 100.432041,220.683896 L100.451,220.683896 L100.451,220.683896 Z" id="Shape"></path>
            </g>
        </g>
    </g>
</svg>