<?xml version="1.0" encoding="UTF-8"?>
<svg width="201px" height="212px" viewBox="0 0 201 212" version="1.1" xmlns="http://www.w3.org/2000/svg" xmlns:xlink="http://www.w3.org/1999/xlink">
    <!-- Generator: Sketch 3.8.3 (29802) - http://www.bohemiancoding.com/sketch -->
    <title>Shape</title>
    <desc>Created with Sketch.</desc>
    <defs></defs>
    <g id="Page-1" stroke="none" stroke-width="1" fill="none" fill-rule="evenodd">
        <g id="product" fill="#8000FF">
            <g id="Page-1">
                <path d="M193.878225,34.7249066 C193.381498,34.520894 192.875902,34.3257515 192.370305,34.130609 C166.274429,23.8412762 140.07211,13.8180469 114.144766,3.10294869 C105.96652,-0.276564904 98.9857404,-0.64910971 90.5680018,2.79249469 C61.7135196,14.5720067 32.5042328,25.4911175 3.40138735,36.6497215 C1.33465069,37.4391617 0.651651875,38.4503547 0.731482905,40.6501431 C1.05080702,49.6089586 0.855664507,58.5677742 1.29030011,67.5354599 C1.85798744,79.2883615 1.50318286,91.0767436 1.91120812,102.847385 C2.4522851,118.387826 2.0797403,133.954877 2.79821957,149.504187 C2.79821957,153.291726 2.92240117,157.079265 2.75386899,160.849064 C2.65629774,163.102073 3.40138735,164.255188 5.48586424,165.275251 C36.3272521,180.372186 67.1154193,195.566692 97.8858463,210.796678 C99.7219599,211.70143 101.194399,211.825611 103.003902,210.787808 C105.611716,209.279888 108.361451,208.002592 111.075706,206.672075 C138.679503,193.08306 166.292169,179.494044 193.913705,165.940509 C195.590157,165.124459 196.6457,164.335019 196.698921,162.170711 C197.239998,142.958043 197.940737,123.754245 198.526165,104.550447 C198.880969,93.0015584 198.792268,81.4260591 199.484137,69.8949103 C199.989733,61.4860419 199.909902,53.0683033 200.326798,44.6594348 C200.770304,35.7094893 202.304833,38.0778099 193.869354,34.7337767 L193.878225,34.7249066 L193.878225,34.7249066 Z M94.1958786,191.220336 C94.1958786,193.837019 93.8588143,194.404707 91.2687409,193.10967 C66.9202768,180.984223 42.5363322,168.947478 18.1169072,156.963954 C16.2807935,156.059202 15.7308464,154.977048 15.7131062,152.999012 C15.5357039,136.376418 15.2962108,119.744953 14.9768867,103.122359 C14.6753028,87.4754771 14.2495373,71.8374654 13.8858626,56.1905836 C13.8592523,55.0108583 13.8858626,53.8311331 13.8858626,52.0837206 C24.0332735,56.4744272 33.6307373,60.5990304 43.2015908,64.7679842 C59.41616,71.8374654 75.6129889,78.9601673 91.8541684,85.9764278 C93.7080224,86.7747381 94.3821511,87.7327105 94.3732809,89.790577 C94.2490993,123.594583 94.1958786,157.407459 94.2047488,191.211465 L94.1958786,191.220336 L94.1958786,191.220336 Z M99.1276623,75.1105376 C75.1251326,64.5905819 51.0959926,54.1415871 27.0757228,43.6571119 C26.4282044,43.3732682 25.5678033,43.3023073 25.1863884,42.1403223 C50.3775134,32.4541573 75.4355866,22.8212131 100.46705,13.1527883 C101.682255,12.6826723 102.711189,12.7713734 103.882044,13.2326194 C127.565249,22.5462395 151.248455,31.8243792 174.94053,41.111389 C175.428387,41.3065315 175.996074,41.421843 176.253307,42.2999844 C170.2305,44.9964991 164.181081,47.7196243 158.113923,50.4161391 C139.779397,58.5589041 121.44487,66.6839289 103.110344,74.826694 C101.797567,75.4121215 100.635582,75.7757962 99.1365324,75.1105376 L99.1276623,75.1105376 L99.1276623,75.1105376 Z M186.968405,55.4543641 C186.51603,72.1745298 186.054784,88.9035656 185.540317,105.623731 C185.194383,116.950867 184.759747,128.269133 184.351722,139.587399 C184.174319,144.545793 183.837255,149.504187 183.837255,154.462581 C183.837255,156.600279 182.551088,157.176836 181.078649,157.904186 C160.056478,168.237869 139.043177,178.580422 118.021006,188.914106 C114.561661,190.617168 111.084577,192.31136 107.128505,194.245045 L107.128505,185.800696 C107.181726,154.143257 107.270427,122.494689 107.217207,90.8372505 C107.217207,88.0254242 108.113088,86.7747381 110.712032,85.6304933 C135.016145,74.9686158 159.249298,64.129336 183.491321,53.3255366 C187.021626,51.7555263 187.074847,51.7200459 186.968405,55.4454939 L186.968405,55.4543641 L186.968405,55.4543641 Z" id="Shape"></path>
            </g>
        </g>
    </g>
</svg>