<?xml version="1.0" encoding="UTF-8"?>
<svg width="201px" height="197px" viewBox="0 0 201 197" version="1.1" xmlns="http://www.w3.org/2000/svg" xmlns:xlink="http://www.w3.org/1999/xlink">
    <!-- Generator: Sketch 3.8.3 (29802) - http://www.bohemiancoding.com/sketch -->
    <title>Shape</title>
    <desc>Created with Sketch.</desc>
    <defs></defs>
    <g id="Page-1" stroke="none" stroke-width="1" fill="none" fill-rule="evenodd">
        <g id="rails" fill="#C22821">
            <g id="Page-1">
                <path d="M22.3169363,196.48354 L119.927798,196.48354 C119.927798,196.48354 98.2756773,147.307837 103.776867,102.169866 C109.278058,57.0318957 144.877106,36.4817767 165.056952,34.2777742 C185.236799,32.0737718 196.247995,44.5572417 196.247995,44.5572417 L200.656,37.9540503 C200.656,37.9540503 171.66896,8.59673746 134.96791,11.9027412 C98.2668613,15.2087449 72.947281,39.426324 57.1754393,68.7836369 C41.3947816,98.1409497 32.2173153,118.691069 25.9843964,149.520655 C19.7514774,180.350242 22.3169363,196.492356 22.3169363,196.492356 L22.3169363,196.48354 L22.3169363,196.48354 Z M2.86881848,147.307837 L21.9466638,148.78011 L18.6406601,167.857956 L0.656,165.653953 L2.86000247,147.307837 L2.86881848,147.307837 L2.86881848,147.307837 Z M32.9578602,106.939328 L38.0975939,92.6309436 L21.214935,86.0277522 L15.7137449,101.438137 L32.9578602,106.939328 L32.9578602,106.939328 L32.9578602,106.939328 Z M56.8139829,57.7636245 L66.723178,46.0206994 L53.8782516,37.5837779 L43.6076001,48.9564307 L56.8139829,57.7636245 L56.8139829,57.7636245 L56.8139829,57.7636245 Z M82.8652921,12.2641976 L91.6724859,22.9051215 L103.785684,15.9316577 L94.9784896,6.02246258 L82.8652921,12.2641976 L82.8652921,12.2641976 L82.8652921,12.2641976 Z M125.79926,0.151 L128.003263,10.7919239 L143.052191,10.4216515 L141.579918,0.88272882 L125.79926,0.151 L125.79926,0.151 L125.79926,0.151 Z M176.808693,11.5236527 L176.438421,18.1268441 L186.717888,23.6280343 L188.921891,20.3220306 L176.817509,11.5148367 L176.808693,11.5236527 L176.808693,11.5236527 Z M174.604691,39.7877804 L174.604691,45.2889706 L184.513886,46.3909718 L184.513886,41.9829669 L174.604691,39.7789644 L174.604691,39.7877804 L174.604691,39.7877804 Z M143.052191,44.5572417 L147.821653,53.3644356 L154.795117,47.8632454 L153.331659,41.9917829 L143.061007,44.5660577 L143.052191,44.5572417 L143.052191,44.5572417 Z M128.003263,55.9298945 L135.338183,66.9410908 L130.938994,74.6462834 L120.29807,62.9033583 L128.003263,55.9298945 L128.003263,55.9298945 L128.003263,55.9298945 Z M113.324606,86.3892086 L108.555145,95.9281313 L121.029799,106.569055 L123.96553,94.4558576 L113.324606,86.3803926 L113.324606,86.3892086 L113.324606,86.3892086 Z M108.184872,119.784254 L107.453144,132.62918 L122.863529,139.232372 L122.1318,127.119174 L108.184872,119.775438 L108.184872,119.784254 L108.184872,119.784254 Z M112.592877,165.283681 L116.269153,178.49888 L135.717271,179.600881 L128.743807,165.292497 L112.592877,165.292497 L112.592877,165.283681 L112.592877,165.283681 Z" id="Shape"></path>
            </g>
        </g>
    </g>
</svg>