<?xml version="1.0" encoding="UTF-8"?>
<svg width="201px" height="121px" viewBox="0 0 201 121" version="1.1" xmlns="http://www.w3.org/2000/svg" xmlns:xlink="http://www.w3.org/1999/xlink">
    <!-- Generator: Sketch 3.8.3 (29802) - http://www.bohemiancoding.com/sketch -->
    <title>Shape</title>
    <desc>Created with Sketch.</desc>
    <defs></defs>
    <g id="Page-1" stroke="none" stroke-width="1" fill="none" fill-rule="evenodd">
        <g id="responsive" fill="#E67E22">
            <g id="Page-1">
                <path d="M200.649094,111.20714 C198.894715,115.747367 195.535829,117.157923 190.784018,117.096211 C174.712496,116.90226 158.640973,117.025683 142.569451,117.016867 C136.706828,117.016867 134.017955,114.327995 134.017955,108.40366 C134.009139,84.4947357 134.009139,60.5858115 134.017955,36.6857032 C134.017955,30.7172882 136.6363,28.0901276 142.551819,28.0813116 C158.782029,28.0724957 175.021055,28.1782874 191.251265,28.0107838 C195.985444,27.966704 199.16801,29.5535795 200.65791,34.1378865 L200.65791,111.198324 L200.649094,111.20714 L200.649094,111.20714 Z M195.668068,102.452877 L195.668068,34.5081574 L138.80503,34.5081574 L138.80503,102.452877 L195.668068,102.452877 L195.668068,102.452877 L195.668068,102.452877 Z M180.848414,109.514473 C180.892494,107.654302 179.464306,106.067426 177.657031,105.970451 C175.743965,105.864659 174.051298,107.416271 173.998402,109.338153 C173.945506,111.277668 175.532382,112.890991 177.471896,112.873359 C179.358515,112.855727 180.804335,111.418723 180.848414,109.514473 L180.848414,109.514473 L180.848414,109.514473 Z M160.483512,109.470393 C160.501144,107.522062 158.896637,105.935187 156.965938,105.970451 C155.176295,106.005715 153.624684,107.583774 153.58942,109.391049 C153.554156,111.304116 155.176295,112.908623 157.124626,112.873359 C158.958349,112.838095 160.474696,111.312932 160.483512,109.470393 L160.483512,109.470393 L160.483512,109.470393 Z M167.324709,105.970451 C165.52625,105.908739 163.90411,107.407455 163.815951,109.223546 C163.718975,111.189508 165.208875,112.820463 167.157205,112.873359 C169.035008,112.926255 170.560172,111.506883 170.657147,109.637896 C170.754123,107.671934 169.264223,106.040979 167.324709,105.970451 L167.324709,105.970451 L167.324709,105.970451 Z M5.32235224,120.904712 C1.76069835,119.837979 0.623437571,117.440034 0.658701471,113.772589 C0.799757071,96.9869722 0.711597321,80.1925399 0.720413296,63.4069235 C0.720413296,59.0165679 2.4130805,57.226925 6.84751592,57.1916611 C14.1912231,57.1211333 21.5349303,57.1299493 28.8874534,57.1916611 C33.1455693,57.226925 34.9616602,59.0782797 34.9616602,63.2658679 C34.9792921,80.3776753 34.9263963,97.4894828 35.0057401,114.60129 C35.023372,117.951361 33.4188646,119.802716 30.5272248,120.904712 L5.32235224,120.904712 L5.32235224,120.904712 L5.32235224,120.904712 Z M4.11456367,68.16755 L4.11456367,110.149223 L31.5498779,110.149223 L31.5498779,68.16755 L4.11456367,68.16755 L4.11456367,68.16755 L4.11456367,68.16755 Z M150.301061,22.1569764 L150.301061,9.48842038 L22.2931041,9.48842038 L22.2931041,51.1967981 L13.4859451,51.1967981 L13.4859451,48.6489813 L13.4859451,7.23153078 C13.4859451,2.55024806 15.5576992,0.469677956 20.2918778,0.460861981 C64.2130652,0.452046006 108.143069,0.452046006 152.064256,0.460861981 C156.921858,0.460861981 159.02006,2.56788001 159.037692,7.37258638 C159.055324,12.2125567 159.037692,17.043711 159.037692,22.1569764 L150.301061,22.1569764 L150.301061,22.1569764 Z M128.031908,79.2933104 L128.031908,96.5461735 L40.9477072,96.5461735 L40.9477072,79.2933104 L128.031908,79.2933104 L128.031908,79.2933104 L128.031908,79.2933104 Z M90.1320317,87.7566464 C90.0791359,85.5702846 88.2277811,83.8864334 86.0061554,83.9922251 C83.8903214,84.0980168 82.268182,85.8435798 82.3298938,87.9594138 C82.3827897,90.022352 84.1724326,91.785547 86.2089228,91.7943629 C88.3423888,91.8031789 90.1849276,89.9077443 90.1408477,87.7566464 L90.1320317,87.7566464 L90.1320317,87.7566464 Z M108.257676,116.734756 L63.4901553,116.734756 C65.7911247,114.327995 68.1185421,112.679408 69.3086988,110.422518 C70.5341193,108.103917 70.6575429,105.203461 71.2834772,102.488141 L101.487008,102.488141 C101.495823,108.18326 103.27665,113.067311 108.918874,115.906055 C108.698475,116.17935 108.478076,116.452645 108.257676,116.734756 L108.257676,116.734756 L108.257676,116.734756 Z" id="Shape"></path>
            </g>
        </g>
    </g>
</svg>