<?xml version="1.0" encoding="UTF-8"?>
<svg width="194px" height="193px" viewBox="0 0 194 193" version="1.1" xmlns="http://www.w3.org/2000/svg" xmlns:xlink="http://www.w3.org/1999/xlink">
    <!-- Generator: Sketch 3.8.3 (29802) - http://www.bohemiancoding.com/sketch -->
    <title>Shape</title>
    <desc>Created with Sketch.</desc>
    <defs></defs>
    <g id="Page-1" stroke="none" stroke-width="1" fill="none" fill-rule="evenodd">
        <g id="ruby" transform="translate(-3.000000, -6.000000)" fill="#B40A00">
            <g id="Page-1">
                <path d="M11.3454545,105.036364 C12.5454545,101.281818 13.9727273,93.6272727 17.3,86.9 C33.4909091,54.2272727 58.5363636,30.4636364 91.9818182,16.0272727 C98.4363636,13.2454545 106.118182,12.3545455 113.245455,12.3181818 C122.154545,12.2727273 128.127273,18.4727273 128.909091,27.4636364 C129.318182,32.1454545 129.263636,37.3454545 127.654545,41.6545455 C111.809091,84.0363636 81.9090909,112.418182 39.8727273,128.363636 C38.2363636,128.981818 36.4090909,129.145455 34.6454545,129.381818 C20.3363636,131.345455 11.1272727,123.236364 11.3454545,105.036364 L11.3454545,105.036364 L11.3454545,105.036364 Z M121.354545,73.6272727 C144.590909,72 167.436364,70.4 191.372727,68.7181818 C189.627273,67.0545455 188.645455,65.9636364 187.509091,65.0545455 C166.672727,48.3454545 145.781818,31.7090909 125.027273,14.9 C122.972727,13.2363636 121.7,10.6181818 118.954545,6.98181818 C127.872727,6.98181818 135.081818,6.9 142.290909,7 C150.990909,7.12727273 159.9,6.28181818 168.354545,7.84545455 C186.636364,11.2272727 196.390909,23.0181818 196.045455,41.6 C195.727273,59.0181818 193.927273,76.4090909 192.636364,93.8 C190.663636,120.427273 188.590909,147.054545 186.536364,173.672727 C186.181818,178.263636 185.754545,182.854545 185.290909,188.309091 C175.627273,179.7 166.381818,171.472727 157.154545,163.236364 C155.963636,162.172727 154.972727,160.8 153.654545,159.954545 C142.372727,152.772727 137.663636,142.063636 135.1,129.263636 C131.754545,112.536364 126.854545,96.1181818 122.636364,79.5636364 C122.163636,77.7090909 121.818182,75.8181818 121.345455,73.6090909 L121.354545,73.6272727 L121.354545,73.6272727 Z M34.2272727,175.463636 C39.2,174.772727 43.8545455,174.481818 48.2909091,173.336364 C50.0363636,172.890909 52.0636364,170.763636 52.6272727,168.981818 C56.8090909,155.754545 60.6454545,142.409091 64.6,129.118182 C64.9454545,127.954545 65.4272727,126.827273 66.0636364,125.090909 C90.2636364,132.836364 114.272727,140.527273 138.990909,148.436364 C126.127273,161.418182 112.445455,172.3 97.1545455,182.081818 C124.4,184.163636 151.645455,186.245455 178.890909,188.327273 C178.890909,188.672727 178.890909,189.027273 178.9,189.372727 C173.027273,189.790909 167.154545,190.227273 161.281818,190.618182 C126.627273,192.9 91.9818182,195.172727 57.3272727,197.436364 C51.8181818,197.8 46.3,198.4 40.8,198.3 C17.4727273,197.872727 4.25454545,185.090909 3.95454545,161.690909 C3.78181818,148.545455 5.13636364,135.381818 5.97272727,122.236364 C6.03636364,121.245455 7.45454545,120.336364 8.24545455,119.390909 C9.41818182,120.436364 11.1272727,121.254545 11.7,122.563636 C18.6636364,138.709091 25.4636364,154.927273 32.3090909,171.118182 C32.8636364,172.418182 33.4545455,173.7 34.2272727,175.463636 L34.2272727,175.463636 L34.2272727,175.463636 Z" id="Shape"></path>
            </g>
        </g>
    </g>
</svg>
